<svg xmlns="http://www.w3.org/2000/svg" viewBox="0 0 96 48" fill="none">
  <g stroke="#00cfff" stroke-opacity="0.25" stroke-width="1">
    <line x1="0" y1="24" x2="96" y2="24"></line>
    <line x1="0" y1="8" x2="96" y2="8" stroke-dasharray="2 3"></line>
    <line x1="0" y1="40" x2="96" y2="40" stroke-dasharray="2 3"></line>
  </g>
  <path d="M0 24 L6 24 L8 12 L12 36 L16 18 L20 30 L24 24 L30 24 L32 16 L36 32 L40 20 L44 28 L48 24 L56 24 L58 10 L62 38 L66 22 L70 26 L74 24 L82 24 L84 18 L88 30 L92 24 L96 24" stroke="#00cfff" stroke-width="1.8" fill="none" stroke-linejoin="miter"></path>
</svg>